<?xml version="1.0" encoding="UTF-8"?>
<svg id="Layer_1" data-name="Layer 1" xmlns="http://www.w3.org/2000/svg" viewBox="0 0 32 32">
  <defs>
    <style>
      .cls-1 {
        fill: #d8d8d8;
      }
    </style>
  </defs>
  <path class="cls-1" d="M26.79,9.13H5.37c-1.1,0-2-.9-2-2s.9-2,2-2h21.42c1.1,0,2,.9,2,2s-.9,2-2,2Z"/>
  <path class="cls-1" d="M26.79,18H5.37c-1.1,0-2-.9-2-2s.9-2,2-2h21.42c1.1,0,2,.9,2,2s-.9,2-2,2Z"/>
  <path class="cls-1" d="M26.63,26.87H5.21c-1.1,0-2-.9-2-2s.9-2,2-2h21.42c1.1,0,2,.9,2,2s-.9,2-2,2Z"/>
</svg>