<svg width="753" height="198" viewBox="0 0 753 198" fill="none" xmlns="http://www.w3.org/2000/svg">
<path d="M96.1882 185.26C142.059 185.26 179.244 148.11 179.244 102.284C179.244 56.4571 142.059 19.3073 96.1882 19.3073C50.3177 19.3073 13.1323 56.4571 13.1323 102.284C13.1323 148.11 50.3177 185.26 96.1882 185.26Z" fill="#F0F0F0"/>
<path d="M186.164 19.311V102.287L186.096 185.264C186.119 185.264 186.141 185.264 186.168 185.264C231.732 185.264 269.224 147.808 269.224 102.287C269.22 56.767 231.728 19.311 186.164 19.311Z" fill="#F0F0F0"/>
<path d="M276.212 19.311V102.287L276.144 185.264C276.167 185.264 276.189 185.264 276.216 185.264C321.78 185.264 359.271 147.808 359.271 102.287C359.268 56.767 321.776 19.311 276.212 19.311Z" fill="#F0F0F0"/>
<path d="M414.568 19.311H366.12V185.26H414.568V19.311Z" fill="#F0F0F0"/>
<path d="M421.488 74.6262H469.936V185.26H518.384V74.6262H566.836V19.311H421.488V74.6262Z" fill="#F0F0F0"/>
<path d="M739.864 19.311H684.496L656.812 74.6262L629.124 19.311H573.756L629.124 129.941L629.237 185.26H684.827L684.496 129.941L739.864 19.311Z" fill="#F0F0F0"/>
</svg>
